<?xml version="1.0" encoding="utf-8"?>
<!-- Generator: Adobe Illustrator 23.0.4, SVG Export Plug-In . SVG Version: 6.00 Build 0)  -->
<svg version="1.1" id="Layer_1" xmlns="http://www.w3.org/2000/svg" xmlns:xlink="http://www.w3.org/1999/xlink" x="0px" y="0px"
	 viewBox="0 0 960 780" style="enable-background:new 0 0 960 780;" xml:space="preserve">
<style type="text/css">
	.st0{fill:none;}
	.st1{fill:#805AD5;}
</style>
<g>
	<polygon class="st0" points="481.73,723.14 718.56,367.91 644.07,180.62 315.71,180.62 238.03,368.34 	"/>
	<polygon class="st0" points="112.9,64.85 221.63,336.66 287.99,176.28 	"/>
	<polygon class="st0" points="225.59,398.39 182.91,501.54 426.66,691.13 	"/>
	<polygon class="st0" points="671.74,176.39 735.06,335.61 846.38,65.25 	"/>
	<polygon class="st0" points="773.24,505.39 730.8,398.7 535.06,692.31 	"/>
	<path class="st1" d="M751.64,366.97L887.99,35.83c2.26-5.5,0.71-11.83-3.85-15.64c-4.56-3.82-11.06-4.24-16.08-1.05L657.14,153.35
		h-3.82H306.59h-3.82L91.85,19.13c-4.99-3.17-11.46-2.77-16.02,1.01s-6.16,10.07-3.96,15.56l132.46,331.15
		c0.37,0.94,0.85,1.83,1.42,2.66l1.43,2.08l-53.43,129.13c-2.35,5.67-0.62,12.21,4.23,15.98l315.56,245.44
		c2.46,1.91,5.42,2.87,8.37,2.87c2.97,0,5.95-0.97,8.42-2.91l307.77-241.54c4.76-3.73,6.49-10.15,4.25-15.77l-53.16-133.66
		l1.19-1.78C750.87,368.6,751.3,367.8,751.64,366.97z M644.07,180.62l74.49,187.28L481.73,723.14l-243.7-354.8l77.67-187.71H644.07z
		 M112.9,64.85l175.09,111.42l-66.37,160.39L112.9,64.85z M225.59,398.39l201.07,292.73L182.91,501.54L225.59,398.39z
		 M773.24,505.39L535.06,692.31L730.8,398.7L773.24,505.39z M671.74,176.39L846.38,65.25L735.06,335.61L671.74,176.39z"/>
</g>
</svg>
